<svg xmlns="http://www.w3.org/2000/svg" xmlns:xlink="http://www.w3.org/1999/xlink" fill="none" version="1.1" width="48" height="48" viewBox="0 0 48 48"><defs><filter id="master_svg0_339_04064" filterUnits="objectBoundingBox" color-interpolation-filters="sRGB" x="0" y="0" width="48" height="48"><feFlood flood-opacity="0" result="BackgroundImageFix"/><feBlend mode="normal" in="SourceGraphic" in2="BackgroundImageFix" result="shape"/><feGaussianBlur in="BackgroundImage" stdDeviation="5"/><feComposite in2="SourceAlpha" operator="in" result="effect1_foregroundBlur"/><feBlend mode="normal" in="SourceGraphic" in2="effect1_foregroundBlur" result="shape"/></filter></defs><g transform="matrix(-1,0,0,1,96,0)"><g filter="url(#master_svg0_339_04064)"><rect x="48" y="0" width="48" height="48" rx="24" fill="#FFFFFF" fill-opacity="0.10000000149011612"/></g><g><path d="M76.17157,24L67.58654,32.585L67.58579,32.5858Q67.4465,32.7251,67.33706,32.8889Q67.22762,33.0526,67.15224,33.2346Q67.07686,33.4166,67.03843,33.6098Q67,33.803,67,34Q67,34.197,67.03843,34.3902Q67.07686,34.5834,67.15224,34.7654Q67.22762,34.9474,67.33706,35.1111Q67.4465,35.2749,67.58579,35.4142Q67.72507,35.5535,67.88886,35.6629Q68.052645,35.772400000000005,68.234633,35.8478Q68.416621,35.923100000000005,68.609819,35.961600000000004Q68.803017,36,69,36Q69.196983,36,69.390181,35.961600000000004Q69.583378,35.923100000000005,69.765367,35.8478Q69.947355,35.772400000000005,70.11114,35.6629Q70.27493,35.5535,70.41421,35.4142L70.41496,35.4135L80.4142,25.4142Q80.5535,25.274900000000002,80.66290000000001,25.1111Q80.7724,24.947400000000002,80.8478,24.7654Q80.9231,24.583399999999997,80.9616,24.3902Q81,24.197,81,24Q81,23.80302,80.9616,23.60982Q80.9231,23.41662,80.8478,23.23463Q80.7724,23.05264,80.66290000000001,22.88886Q80.5535,22.725070000000002,80.4142,22.58579L70.41421,12.58579Q70.27493,12.4465,70.11114,12.33706Q69.947355,12.22762,69.765367,12.152239999999999Q69.583378,12.07686,69.390181,12.03843Q69.196983,12,69,12Q68.803017,12,68.609819,12.03843Q68.416621,12.07686,68.234633,12.152239999999999Q68.052645,12.22762,67.88886,12.33706Q67.72507,12.4465,67.58579,12.58579Q67.4465,12.72507,67.33706,12.88886Q67.22762,13.052645,67.15224,13.234633Q67.07686,13.416622,67.03843,13.609819Q67,13.803017,67,14Q67,14.196983,67.03843,14.390181Q67.07686,14.583378,67.15224,14.765367Q67.22762,14.947355,67.33706,15.11114Q67.4465,15.27493,67.58579,15.41421L76.17157,24Z" fill-rule="evenodd" fill="#2D2E33" fill-opacity="1"/></g></g></svg>