<svg xmlns="http://www.w3.org/2000/svg" xmlns:xlink="http://www.w3.org/1999/xlink" fill="none" version="1.1" width="24" height="24" viewBox="0 0 24 24"><defs><clipPath id="master_svg0_337_17434"><rect x="0" y="0" width="24" height="24" rx="0"/></clipPath></defs><g clip-path="url(#master_svg0_337_17434)"><g transform="matrix(0,-1,1,0,-9.001953125,26.998046875)"><path d="M9.528530875,17.469824L14.998046875,22.93934L20.467246875,17.470132L20.467746875,17.46967Q20.573246875000002,17.364181,20.711046875,17.30709Q20.848846875,17.25,20.998046875,17.25Q21.071946875000002,17.25,21.144346875,17.264411Q21.216846875,17.278822,21.285046875,17.30709Q21.353346875,17.335359,21.414746875,17.376398000000002Q21.476146874999998,17.417437,21.528346875,17.46967Q21.580646875,17.521903000000002,21.621646875,17.583322Q21.662646875,17.644742,21.690946875,17.712987Q21.719246875,17.781233,21.733646874999998,17.853682Q21.748046875,17.9261315,21.748046875,18Q21.748046875,18.149184,21.690946875,18.287013Q21.633846875,18.424841,21.528346875,18.53033L21.527946874999998,18.530792L15.528376875,24.53033Q15.476146875000001,24.58256,15.414726875,24.6236Q15.353306875000001,24.66464,15.285056875,24.69291Q15.216816875,24.72118,15.144366875,24.735590000000002Q15.071916875,24.75,14.998046875,24.75Q14.924176875,24.75,14.851726875,24.735590000000002Q14.779276875,24.72118,14.711036875,24.69291Q14.642786874999999,24.66464,14.581366875,24.6236Q14.519946874999999,24.58256,14.467716875,24.53033L8.467870875,18.530484L8.467716875,18.53033Q8.362227875,18.424841,8.305136875,18.287013Q8.248046875,18.149184,8.248046875,18Q8.248046875,17.9261315,8.262457874999999,17.853682Q8.276868875,17.781233,8.305136875,17.712987Q8.333405875,17.644742,8.374444875,17.583322Q8.415483875,17.521903000000002,8.467716875,17.46967Q8.519949875,17.417437,8.581368875,17.376398000000002Q8.642788875,17.335359,8.711033875,17.30709Q8.779279875,17.278822,8.851728875,17.264411Q8.924178375,17.25,8.998046875,17.25Q9.147230875,17.25,9.285059875,17.30709Q9.422887875,17.364181,9.528376875,17.46967L9.528530875,17.469824Z" fill-rule="evenodd" fill="#2D2E33" fill-opacity="1"/></g></g></svg>