<svg xmlns="http://www.w3.org/2000/svg" xmlns:xlink="http://www.w3.org/1999/xlink" fill="none" version="1.1" width="28" height="28" viewBox="0 0 28 28"><defs><clipPath id="master_svg0_sa142_04100"><rect x="0" y="0" width="28" height="28" rx="0"/></clipPath></defs><g clip-path="url(#master_svg0_sa142_04100)"><g><path d="M10.937742452507019,4.520618945344776L11.12441245250702,4.998254417144775Q11.37127245250702,5.6217974171447755,11.525112452507019,6.333787417144776L11.566112452507019,6.523507417144776L11.758452452507019,6.497547417144776Q12.96371245250702,6.334937417144776,13.998512452507018,6.334927417144775Q15.125112452507018,6.343477417144776,16.24121245250702,6.497467417144776L16.43421245250702,6.5241074171447755L16.47521245250702,6.3335574171447755Q16.62811245250702,5.621707417144775,16.87491245250702,4.998490417144775L17.06231245250702,4.520591974244775L17.58671245250702,4.583695317144775Q20.59261245250702,4.912162417144775,22.782212452507018,6.671037417144776L22.83981245250702,6.717317417144775L22.85571245250702,6.717317417144775Q23.286712452507018,7.137417417144775,23.79041245250702,8.352107417144776Q23.82461245250702,8.434487417144776,23.84101245250702,8.473987417144775Q24.44791245250702,9.962177417144776,24.87171245250702,11.513157417144775Q26.040112452507017,15.738067417144775,26.040112452507017,19.249967417144774L26.040112452507017,19.419067417144774L25.95551245250702,19.588367417144774Q24.99781245250702,21.264167417144776,22.46921245250702,22.450467417144775Q20.50421245250702,23.372967417144775,19.26631245250702,23.415267417144776L18.87461245250702,23.435667417144774L18.66741245250702,23.084167417144776L17.63331245250702,21.252467417144775L17.481012452507017,21.286867417144776Q15.807012452507019,21.664967417144776,14.000112452507018,21.664967417144776Q12.19331245250702,21.664967417144776,10.51927245250702,21.286867417144776L10.36691245250702,21.252467417144775L9.334692452507019,23.081067417144776L9.126312452507019,23.435667417144774L8.730152452507019,23.415067417144776Q7.496082452507019,23.372967417144775,5.5309524525070195,22.450467417144775Q3.002402452507019,21.264167417144776,2.0447565525070193,19.588367417144774L1.9601295888070192,19.419067417144774L1.960129708007019,19.249967417144774Q1.960131675007019,15.737967417144775,3.128702452507019,11.512537417144776Q3.552302452507019,9.962197417144775,4.158632452507019,8.475387417144775Q4.176622452507019,8.432167417144775,4.211512452507019,8.348117417144776Q4.71263245250702,7.140907417144776,5.142892452507019,6.718187417144776L5.159512452507019,6.718187417144776L5.217122452507019,6.671927417144776Q7.408472452507019,4.912162417144775,10.41585245250702,4.583433117144775L10.937742452507019,4.520618945344776ZM9.82973245250702,6.083537417144775Q7.512632452507019,6.547947417144775,6.077122452507019,7.683087417144776L5.81806245250702,7.887947417144775L5.913732452507019,7.9357774171447755Q5.601862452507019,8.476417417144775,5.383572452507019,8.999337417144776Q4.815462452507019,10.404237417144776,4.419522452507019,11.865687417144775Q3.371112452507019,15.645867417144775,3.318152452507019,18.945567417144776L3.317122452507019,19.009967417144775L3.352332452507019,19.063767417144774Q4.198112452507019,20.358067417144774,6.089522452507019,21.243967417144777Q7.135972452507019,21.739367417144777,8.27532245250702,21.945067417144774L8.418922452507019,21.971067417144777L9.05948245250702,20.889767417144775L8.82248245250702,20.802767417144775Q8.457212452507019,20.668767417144775,8.09608245250702,20.506667417144776Q6.922762452507019,19.991267417144776,6.233382452507019,19.444967417144774L7.104522452507019,18.449767417144777Q7.629082452507019,18.861367417144777,8.638342452507018,19.305567417144776Q10.97478245250702,20.334967417144775,14.000112452507018,20.334967417144775Q17.02721245250702,20.334967417144775,19.36181245250702,19.305667417144775Q20.37121245250702,18.861367417144777,20.89571245250702,18.449767417144777L21.766912452507018,19.444967417144774Q21.07731245250702,19.991367417144776,19.902612452507018,20.507367417144778Q19.55871245250702,20.661667417144777,19.177212452507018,20.802967417144774L18.941012452507017,20.890467417144777L19.58141245250702,21.970067417144776L19.72481245250702,21.944267417144776Q20.86361245250702,21.739267417144774,21.90911245250702,21.245167417144774Q23.79981245250702,20.358767417144776,24.64861245250702,19.064067417144777L24.68401245250702,19.010067417144775L24.68301245250702,18.945467417144776Q24.62881245250702,15.646967417144776,23.58161245250702,11.865847417144774Q23.132912452507018,10.242867417144776,22.61581245250702,8.997157417144775Q22.398312452507017,8.476197417144775,22.08651245250702,7.9357774171447755L22.18221245250702,7.887947417144775L21.92311245250702,7.683087417144776Q20.49031245250702,6.550107417144775,18.17071245250702,6.082697417144775L17.98391245250702,6.045067417144775L17.92841245250702,6.227307417144775Q17.89761245250702,6.3283474171447756,17.83711245250702,6.502807417144775Q17.82661245250702,6.533017417144775,17.82141245250702,6.5481774171447755L17.74651245250702,6.765187417144775L17.96931245250702,6.820497417144775Q19.80941245250702,7.277337417144775,21.17321245250702,8.080537417144775L20.46731245250702,9.202417417144776Q19.00551245250702,8.350397417144775,16.83171245250702,7.946937417144776Q15.312312452507019,7.664937417144776,14.000112452507018,7.664937417144776Q12.687512452507018,7.664937417144776,11.16825245250702,7.946937417144776Q8.99482245250702,8.350357417144775,7.532902452507019,9.202417417144776L6.827082452507019,8.080537417144775Q8.192292452507019,7.276427417144776,10.030832452507019,6.821417417144776L10.253232452507019,6.766367417144775L10.179072452507018,6.549587417144775Q10.17237245250702,6.529997417144775,10.15858245250702,6.490007417144776Q10.100992452507018,6.322987417144775,10.071752452507019,6.227777417144775L10.01598245250702,6.0462074171447755L9.82973245250702,6.083537417144775ZM10.93763245250702,12.459937417144776Q11.81877245250702,12.459937417144776,12.410112452507018,13.250697417144776Q12.91511245250702,13.926117417144775,12.91511245250702,14.874967417144775Q12.91511245250702,15.823767417144776,12.410112452507018,16.499167417144776Q11.81877245250702,17.289967417144773,10.93763245250702,17.289967417144773Q10.05648245250702,17.289967417144773,9.465182452507019,16.499167417144776Q8.960132452507018,15.823767417144776,8.960132452507018,14.874967417144775Q8.960132452507018,13.926117417144775,9.465182452507019,13.250697417144776Q10.05648245250702,12.459937417144776,10.93763245250702,12.459937417144776ZM17.062612452507018,12.459937417144776Q17.943812452507018,12.459937417144776,18.53511245250702,13.250697417144776Q19.040112452507017,13.926117417144775,19.040112452507017,14.874967417144775Q19.040112452507017,15.823767417144776,18.53511245250702,16.499167417144776Q17.943812452507018,17.289967417144773,17.062612452507018,17.289967417144773Q16.181512452507018,17.289967417144773,15.59021245250702,16.499167417144776Q15.085112452507019,15.823767417144776,15.085112452507019,14.874967417144775Q15.085112452507019,13.926117417144775,15.59021245250702,13.250697417144776Q16.181512452507018,12.459937417144776,17.062612452507018,12.459937417144776ZM10.93763245250702,13.789937417144776Q10.73623245250702,13.789937417144776,10.55076245250702,14.037727417144776Q10.290132452507018,14.388007417144776,10.29014245250702,14.872967417144775Q10.28584245250702,15.329867417144776,10.546362452507019,15.705167417144775L10.548332452507019,15.708067417144775L10.550402452507019,15.710767417144776Q10.73577245250702,15.959967417144775,10.93763245250702,15.959967417144775Q11.139032452507019,15.959967417144775,11.32486245250702,15.711667417144776Q11.585132452507018,15.361867417144776,11.585132452507018,14.874967417144775Q11.585132452507018,14.386797417144775,11.32486245250702,14.039077417144775Q11.13948245250702,13.789937417144776,10.93763245250702,13.789937417144776ZM17.062612452507018,13.789937417144776Q16.86121245250702,13.789937417144776,16.67571245250702,14.037727417144776Q16.415112452507017,14.388007417144776,16.415112452507017,14.872967417144775Q16.410812452507017,15.329867417144776,16.671312452507017,15.705167417144775L16.67331245250702,15.708067417144775L16.675412452507018,15.710767417144776Q16.86081245250702,15.959967417144775,17.062612452507018,15.959967417144775Q17.264012452507018,15.959967417144775,17.449812452507018,15.711667417144776Q17.71011245250702,15.361867417144776,17.71011245250702,14.874967417144775Q17.71011245250702,14.386797417144775,17.449812452507018,14.039077417144775Q17.26451245250702,13.789937417144776,17.062612452507018,13.789937417144776Z" fill-rule="evenodd" fill="#C0C4CC" fill-opacity="1"/></g></g></svg>